<svg width="40" height="40" viewBox="0 0 40 40" fill="none" xmlns="http://www.w3.org/2000/svg">
<g clip-path="url(#clip0_1419_1463)">
<path d="M17.0066 19.7995L25.0024 19.7995M31.5318 21.4493L17.1898 29.0422C15.9045 29.7226 15.2614 30.063 14.8376 29.9651C14.47 29.8802 14.1663 29.6238 14.0221 29.2751C13.8559 28.8731 14.0857 28.1821 14.5457 26.8019L16.6831 20.3897C16.7561 20.1707 16.7923 20.0614 16.8068 19.9494C16.8197 19.85 16.8203 19.7495 16.8074 19.6501C16.7933 19.5406 16.7575 19.4334 16.6878 19.2241L14.5454 12.7971C14.0854 11.4169 13.8555 10.7266 14.0218 10.3246C14.1659 9.97596 14.4696 9.7189 14.8372 9.63401C15.2611 9.53613 15.9043 9.87622 17.19 10.5569L31.5321 18.1498C32.5429 18.6849 33.0483 18.9527 33.2136 19.3096C33.3575 19.6205 33.3577 19.9789 33.2137 20.2898C33.0486 20.6465 32.5432 20.9141 31.5335 21.4487L31.5318 21.4493Z" stroke="#B5B5B5" stroke-width="2" stroke-linecap="round" stroke-linejoin="round"/>
</g>
<defs>
<clipPath id="clip0_1419_1463">
<rect width="28" height="28" fill="white" transform="translate(19.7988) rotate(45)"/>
</clipPath>
</defs>
</svg>
