<svg width="479" height="64" viewBox="0 0 479 64" fill="none" xmlns="http://www.w3.org/2000/svg">
<path d="M10.8 52L0.55 14.75H6.8L15.1 47H13.55L22.15 14.75H28.3L36.9 47H35.3L43.65 14.75H49.85L39.65 52H33L24.35 20.25H26.1L17.4 52H10.8ZM64.6328 52.6C61.9328 52.6 59.5328 51.9833 57.4328 50.75C55.3661 49.4833 53.7495 47.7833 52.5828 45.65C51.4161 43.4833 50.8328 41.0667 50.8328 38.4C50.8328 35.6667 51.4161 33.25 52.5828 31.15C53.7828 29.05 55.3828 27.4 57.3828 26.2C59.3828 24.9667 61.6495 24.35 64.1828 24.35C66.2161 24.35 68.0328 24.7 69.6328 25.4C71.2328 26.1 72.5828 27.0667 73.6828 28.3C74.7828 29.5 75.6161 30.8833 76.1828 32.45C76.7828 34.0167 77.0828 35.6833 77.0828 37.45C77.0828 37.8833 77.0661 38.3333 77.0328 38.8C76.9995 39.2667 76.9328 39.7 76.8328 40.1H55.2828V35.6H73.6328L70.9328 37.65C71.2661 36.0167 71.1495 34.5667 70.5828 33.3C70.0495 32 69.2161 30.9833 68.0828 30.25C66.9828 29.4833 65.6828 29.1 64.1828 29.1C62.6828 29.1 61.3495 29.4833 60.1828 30.25C59.0161 30.9833 58.1161 32.05 57.4828 33.45C56.8495 34.8167 56.5995 36.4833 56.7328 38.45C56.5661 40.2833 56.8161 41.8833 57.4828 43.25C58.1828 44.6167 59.1495 45.6833 60.3828 46.45C61.6495 47.2167 63.0828 47.6 64.6828 47.6C66.3161 47.6 67.6995 47.2333 68.8328 46.5C69.9995 45.7667 70.9161 44.8167 71.5828 43.65L76.1828 45.9C75.6495 47.1667 74.8161 48.3167 73.6828 49.35C72.5828 50.35 71.2495 51.15 69.6828 51.75C68.1495 52.3167 66.4661 52.6 64.6328 52.6ZM82.5969 52V14.15H88.2469V52H82.5969ZM107.703 52.6C105.003 52.6 102.603 51.9833 100.503 50.75C98.4361 49.4833 96.7861 47.7833 95.5527 45.65C94.3527 43.5167 93.7527 41.1 93.7527 38.4C93.7527 35.7333 94.3527 33.3333 95.5527 31.2C96.7527 29.0667 98.4027 27.4 100.503 26.2C102.603 24.9667 105.003 24.35 107.703 24.35C109.536 24.35 111.253 24.6833 112.853 25.35C114.453 25.9833 115.836 26.8667 117.003 28C118.203 29.1333 119.086 30.45 119.653 31.95L114.703 34.25C114.136 32.85 113.219 31.7333 111.953 30.9C110.719 30.0333 109.303 29.6 107.703 29.6C106.169 29.6 104.786 29.9833 103.553 30.75C102.353 31.4833 101.403 32.5333 100.703 33.9C100.003 35.2333 99.6527 36.75 99.6527 38.45C99.6527 40.15 100.003 41.6833 100.703 43.05C101.403 44.3833 102.353 45.4333 103.553 46.2C104.786 46.9667 106.169 47.35 107.703 47.35C109.336 47.35 110.753 46.9333 111.953 46.1C113.186 45.2333 114.103 44.0833 114.703 42.65L119.653 45C119.119 46.4333 118.253 47.7333 117.053 48.9C115.886 50.0333 114.503 50.9333 112.903 51.6C111.303 52.2667 109.569 52.6 107.703 52.6ZM138.225 52.6C135.625 52.6 133.242 51.9833 131.075 50.75C128.942 49.5167 127.242 47.8333 125.975 45.7C124.708 43.5667 124.075 41.15 124.075 38.45C124.075 35.7167 124.708 33.3 125.975 31.2C127.242 29.0667 128.942 27.4 131.075 26.2C133.208 24.9667 135.592 24.35 138.225 24.35C140.892 24.35 143.275 24.9667 145.375 26.2C147.508 27.4 149.192 29.0667 150.425 31.2C151.692 33.3 152.325 35.7167 152.325 38.45C152.325 41.1833 151.692 43.6167 150.425 45.75C149.158 47.8833 147.458 49.5667 145.325 50.8C143.192 52 140.825 52.6 138.225 52.6ZM138.225 47.35C139.825 47.35 141.242 46.9667 142.475 46.2C143.708 45.4333 144.675 44.3833 145.375 43.05C146.108 41.6833 146.475 40.15 146.475 38.45C146.475 36.75 146.108 35.2333 145.375 33.9C144.675 32.5667 143.708 31.5167 142.475 30.75C141.242 29.9833 139.825 29.6 138.225 29.6C136.658 29.6 135.242 29.9833 133.975 30.75C132.742 31.5167 131.758 32.5667 131.025 33.9C130.325 35.2333 129.975 36.75 129.975 38.45C129.975 40.15 130.325 41.6833 131.025 43.05C131.758 44.3833 132.742 45.4333 133.975 46.2C135.242 46.9667 136.658 47.35 138.225 47.35ZM157.841 52V24.95H163.241V30.8L162.541 29.9C163.108 28.0667 164.141 26.6833 165.641 25.75C167.141 24.8167 168.858 24.35 170.791 24.35C172.958 24.35 174.874 24.9333 176.541 26.1C178.241 27.2333 179.374 28.75 179.941 30.65L178.341 30.8C179.141 28.6333 180.358 27.0167 181.991 25.95C183.658 24.8833 185.558 24.35 187.691 24.35C189.558 24.35 191.241 24.7833 192.741 25.65C194.274 26.5167 195.491 27.7167 196.391 29.25C197.291 30.7833 197.741 32.5333 197.741 34.5V52H192.091V36.05C192.091 34.6833 191.841 33.5333 191.341 32.6C190.874 31.6333 190.208 30.9 189.341 30.4C188.508 29.8667 187.524 29.6 186.391 29.6C185.258 29.6 184.258 29.8667 183.391 30.4C182.524 30.9 181.841 31.6333 181.341 32.6C180.841 33.5667 180.591 34.7167 180.591 36.05V52H174.991V36.05C174.991 34.6833 174.741 33.5333 174.241 32.6C173.774 31.6333 173.108 30.9 172.241 30.4C171.408 29.8667 170.408 29.6 169.241 29.6C168.108 29.6 167.108 29.8667 166.241 30.4C165.374 30.9 164.691 31.6333 164.191 32.6C163.724 33.5667 163.491 34.7167 163.491 36.05V52H157.841ZM216.488 52.6C213.788 52.6 211.388 51.9833 209.288 50.75C207.222 49.4833 205.605 47.7833 204.438 45.65C203.272 43.4833 202.688 41.0667 202.688 38.4C202.688 35.6667 203.272 33.25 204.438 31.15C205.638 29.05 207.238 27.4 209.238 26.2C211.238 24.9667 213.505 24.35 216.038 24.35C218.072 24.35 219.888 24.7 221.488 25.4C223.088 26.1 224.438 27.0667 225.538 28.3C226.638 29.5 227.472 30.8833 228.038 32.45C228.638 34.0167 228.938 35.6833 228.938 37.45C228.938 37.8833 228.922 38.3333 228.888 38.8C228.855 39.2667 228.788 39.7 228.688 40.1H207.138V35.6H225.488L222.788 37.65C223.122 36.0167 223.005 34.5667 222.438 33.3C221.905 32 221.072 30.9833 219.938 30.25C218.838 29.4833 217.538 29.1 216.038 29.1C214.538 29.1 213.205 29.4833 212.038 30.25C210.872 30.9833 209.972 32.05 209.338 33.45C208.705 34.8167 208.455 36.4833 208.588 38.45C208.422 40.2833 208.672 41.8833 209.338 43.25C210.038 44.6167 211.005 45.6833 212.238 46.45C213.505 47.2167 214.938 47.6 216.538 47.6C218.172 47.6 219.555 47.2333 220.688 46.5C221.855 45.7667 222.772 44.8167 223.438 43.65L228.038 45.9C227.505 47.1667 226.672 48.3167 225.538 49.35C224.438 50.35 223.105 51.15 221.538 51.75C220.005 52.3167 218.322 52.6 216.488 52.6ZM254.893 52.3C252.059 52.3 249.859 51.5 248.293 49.9C246.726 48.3 245.943 46.05 245.943 43.15V30.05H241.193V24.95H241.943C243.209 24.95 244.193 24.5833 244.893 23.85C245.593 23.1167 245.943 22.1167 245.943 20.85V18.75H251.593V24.95H257.743V30.05H251.593V42.9C251.593 43.8333 251.743 44.6333 252.043 45.3C252.343 45.9333 252.826 46.4333 253.493 46.8C254.159 47.1333 255.026 47.3 256.093 47.3C256.359 47.3 256.659 47.2833 256.993 47.25C257.326 47.2167 257.643 47.1833 257.943 47.15V52C257.476 52.0667 256.959 52.1333 256.393 52.2C255.826 52.2667 255.326 52.3 254.893 52.3ZM276.018 52.6C273.418 52.6 271.035 51.9833 268.868 50.75C266.735 49.5167 265.035 47.8333 263.768 45.7C262.501 43.5667 261.868 41.15 261.868 38.45C261.868 35.7167 262.501 33.3 263.768 31.2C265.035 29.0667 266.735 27.4 268.868 26.2C271.001 24.9667 273.385 24.35 276.018 24.35C278.685 24.35 281.068 24.9667 283.168 26.2C285.301 27.4 286.985 29.0667 288.218 31.2C289.485 33.3 290.118 35.7167 290.118 38.45C290.118 41.1833 289.485 43.6167 288.218 45.75C286.951 47.8833 285.251 49.5667 283.118 50.8C280.985 52 278.618 52.6 276.018 52.6ZM276.018 47.35C277.618 47.35 279.035 46.9667 280.268 46.2C281.501 45.4333 282.468 44.3833 283.168 43.05C283.901 41.6833 284.268 40.15 284.268 38.45C284.268 36.75 283.901 35.2333 283.168 33.9C282.468 32.5667 281.501 31.5167 280.268 30.75C279.035 29.9833 277.618 29.6 276.018 29.6C274.451 29.6 273.035 29.9833 271.768 30.75C270.535 31.5167 269.551 32.5667 268.818 33.9C268.118 35.2333 267.768 36.75 267.768 38.45C267.768 40.15 268.118 41.6833 268.818 43.05C269.551 44.3833 270.535 45.4333 271.768 46.2C273.035 46.9667 274.451 47.35 276.018 47.35Z" fill="black"/>
<path d="M337.867 51H305.317L321.217 15.6H321.967L337.867 51ZM321.767 44.45L329.667 49.55L321.617 31.25L313.567 49.55L321.417 44.45H321.767ZM337.823 37.9C337.823 35.6 338.19 33.6 338.923 31.9C339.69 30.2 340.673 28.7833 341.873 27.65C343.107 26.4833 344.49 25.6167 346.023 25.05C347.59 24.4833 349.173 24.2 350.773 24.2C352.407 24.2 353.99 24.4833 355.523 25.05C357.09 25.6167 358.473 26.4833 359.673 27.65C360.907 28.7833 361.89 30.2 362.623 31.9C363.357 33.6 363.723 35.6 363.723 37.9V51H357.073V48.4C356.073 49.4667 354.907 50.2667 353.573 50.8C352.273 51.3333 350.923 51.6 349.523 51.6C348.09 51.6 346.673 51.3167 345.273 50.75C343.873 50.1833 342.623 49.3333 341.523 48.2C340.423 47.0333 339.523 45.6 338.823 43.9C338.157 42.2 337.823 40.2 337.823 37.9ZM344.723 37.9C344.723 39.2667 344.89 40.4667 345.223 41.5C345.59 42.5 346.057 43.35 346.623 44.05C347.223 44.7167 347.89 45.2167 348.623 45.55C349.39 45.8833 350.157 46.05 350.923 46.05C351.69 46.05 352.44 45.8833 353.173 45.55C353.907 45.2167 354.557 44.7167 355.123 44.05C355.723 43.35 356.19 42.5 356.523 41.5C356.89 40.4667 357.073 39.2667 357.073 37.9C357.073 36.6333 356.89 35.5333 356.523 34.6C356.19 33.6333 355.723 32.85 355.123 32.25C354.557 31.6167 353.907 31.15 353.173 30.85C352.44 30.5167 351.69 30.35 350.923 30.35C350.157 30.35 349.39 30.5167 348.623 30.85C347.89 31.15 347.223 31.6167 346.623 32.25C346.057 32.85 345.59 33.6333 345.223 34.6C344.89 35.5333 344.723 36.6333 344.723 37.9ZM382.429 24.5V32.05L375.879 28.65V27.9L382.429 24.5ZM367.779 51V24.75H374.429V51H367.779ZM391.66 42.1C391.66 43.1667 391.877 43.8833 392.31 44.25C392.743 44.6167 393.543 44.8 394.71 44.8H399.46V51H393.81C391.143 51 389.01 50.3333 387.41 49C385.81 47.6667 385.01 45.5333 385.01 42.6V17.5H391.66V42.1ZM399.46 24.5V32.05L392.96 28.65V27.9L399.46 24.5ZM417.479 24.35C418.845 24.35 420.145 24.6167 421.379 25.15C422.612 25.6833 423.695 26.4833 424.629 27.55C425.595 28.6167 426.362 29.9667 426.929 31.6C427.495 33.2 427.779 35.0833 427.779 37.25V51H421.129V37.05C421.129 34.6833 420.579 32.9167 419.479 31.75C418.379 30.55 417.062 29.95 415.529 29.95C414.762 29.95 414.029 30.1 413.329 30.4C412.662 30.7 412.062 31.15 411.529 31.75C411.029 32.3167 410.629 33.05 410.329 33.95C410.029 34.8167 409.879 35.85 409.879 37.05V51H403.229V13.25H409.879V28.35C410.779 27.0167 411.879 26.0167 413.179 25.35C414.512 24.6833 415.945 24.35 417.479 24.35ZM435.338 22.1C434.272 22.1 433.355 21.7333 432.588 21C431.855 20.2333 431.488 19.3167 431.488 18.25C431.488 17.1833 431.855 16.2833 432.588 15.55C433.355 14.8167 434.272 14.45 435.338 14.45C436.405 14.45 437.305 14.8167 438.038 15.55C438.772 16.2833 439.138 17.1833 439.138 18.25C439.138 19.3167 438.772 20.2333 438.038 21C437.305 21.7333 436.405 22.1 435.338 22.1ZM431.988 51V24.75H438.638V51H431.988ZM467.268 51H458.818L451.618 42.05L444.068 51.25H443.268V13.25H449.918V33.8L457.318 24.75H465.818L455.868 36.9L467.268 51Z" fill="url(#paint0_linear_1452_1460)"/>
<defs>
<linearGradient id="paint0_linear_1452_1460" x1="344.348" y1="23" x2="369.523" y2="81.099" gradientUnits="userSpaceOnUse">
<stop stop-color="#74CAFC"/>
<stop offset="1" stop-color="#796FFF"/>
</linearGradient>
</defs>
</svg>
