<svg width="148" height="44" viewBox="0 0 148 44" fill="none" xmlns="http://www.w3.org/2000/svg">
<rect x="0.5" y="0.5" width="147" height="43" rx="7.5" fill="white"/>
<rect x="0.5" y="0.5" width="147" height="43" rx="7.5" stroke="url(#paint0_linear_1452_1476)"/>
<path d="M40.0001 16H37.9001C37.0601 16 36.6397 16 36.3188 16.1635C36.0366 16.3073 35.8073 16.5366 35.6635 16.8188C35.5 17.1397 35.5 17.5601 35.5 18.4001V25.6001C35.5 26.4402 35.5 26.86 35.6635 27.1809C35.8073 27.4632 36.0366 27.6929 36.3188 27.8367C36.6394 28 37.0592 28 37.8977 28H45.1023C45.9408 28 46.36 28 46.6805 27.8367C46.9628 27.6929 47.1929 27.4629 47.3367 27.1807C47.5 26.8601 47.5 26.4408 47.5 25.6023V23.5M44.5 16.75L40 21.25V23.5H42.25L46.75 19M44.5 16.75L46.75 14.5L49 16.75L46.75 19M44.5 16.75L46.75 19" stroke="#7480FF" stroke-width="2" stroke-linecap="round" stroke-linejoin="round"/>
<path d="M63.041 17.42V27.5H62.208C62.082 27.5 61.9747 27.479 61.886 27.437C61.7973 27.3903 61.7133 27.3157 61.634 27.213L56.097 20.101C56.111 20.2363 56.1203 20.3717 56.125 20.507C56.1343 20.6377 56.139 20.759 56.139 20.871V27.5H54.697V17.42H55.551C55.621 17.42 55.6793 17.4247 55.726 17.434C55.7773 17.4387 55.824 17.4503 55.866 17.469C55.908 17.4877 55.9477 17.5157 55.985 17.553C56.0223 17.5903 56.062 17.637 56.104 17.693L61.648 24.812C61.634 24.6673 61.6223 24.525 61.613 24.385C61.6083 24.245 61.606 24.1143 61.606 23.993V17.42H63.041ZM69.6273 23.125C69.6273 22.873 69.59 22.6397 69.5153 22.425C69.4453 22.2057 69.3403 22.0167 69.2003 21.858C69.0603 21.6947 68.8853 21.5687 68.6753 21.48C68.47 21.3867 68.232 21.34 67.9613 21.34C67.4153 21.34 66.986 21.4963 66.6733 21.809C66.3607 22.1217 66.1623 22.5603 66.0783 23.125H69.6273ZM66.0363 24.049C66.055 24.455 66.118 24.8073 66.2253 25.106C66.3327 25.4 66.475 25.645 66.6523 25.841C66.8343 26.037 67.049 26.184 67.2963 26.282C67.5483 26.3753 67.8283 26.422 68.1363 26.422C68.4303 26.422 68.6847 26.3893 68.8993 26.324C69.114 26.254 69.3007 26.1793 69.4593 26.1C69.618 26.016 69.7533 25.9413 69.8653 25.876C69.9773 25.806 70.08 25.771 70.1733 25.771C70.2947 25.771 70.388 25.8177 70.4533 25.911L70.8803 26.464C70.703 26.674 70.5023 26.8513 70.2783 26.996C70.0543 27.1407 69.8163 27.2597 69.5643 27.353C69.3123 27.4417 69.0533 27.5047 68.7873 27.542C68.5213 27.584 68.2623 27.605 68.0103 27.605C67.5157 27.605 67.056 27.5233 66.6313 27.36C66.2113 27.192 65.845 26.947 65.5323 26.625C65.2243 26.303 64.9817 25.904 64.8043 25.428C64.6317 24.952 64.5453 24.4037 64.5453 23.783C64.5453 23.2883 64.6223 22.8263 64.7763 22.397C64.935 21.9677 65.159 21.5943 65.4483 21.277C65.7423 20.9597 66.097 20.71 66.5123 20.528C66.9323 20.3413 67.406 20.248 67.9333 20.248C68.372 20.248 68.778 20.3203 69.1513 20.465C69.5247 20.605 69.8467 20.8127 70.1173 21.088C70.388 21.3633 70.598 21.7017 70.7473 22.103C70.9013 22.4997 70.9783 22.9523 70.9783 23.461C70.9783 23.6943 70.9527 23.8507 70.9013 23.93C70.85 24.0093 70.7567 24.049 70.6213 24.049H66.0363ZM82.3308 20.36L80.0418 27.5H78.8448C78.7048 27.5 78.6068 27.409 78.5508 27.227L77.1298 22.782C77.0925 22.656 77.0575 22.53 77.0248 22.404C76.9968 22.278 76.9711 22.1543 76.9478 22.033C76.8965 22.285 76.8335 22.537 76.7588 22.789L75.3168 27.227C75.2655 27.409 75.1558 27.5 74.9878 27.5H73.8468L71.5578 20.36H72.7478C72.8645 20.36 72.9601 20.3903 73.0348 20.451C73.1141 20.507 73.1655 20.5747 73.1888 20.654L74.3788 24.812C74.4255 25.0033 74.4651 25.19 74.4978 25.372C74.5351 25.5493 74.5678 25.7267 74.5958 25.904C74.6425 25.7267 74.6915 25.5493 74.7428 25.372C74.7941 25.19 74.8478 25.0033 74.9038 24.812L76.2408 20.633C76.2641 20.549 76.3108 20.4813 76.3808 20.43C76.4555 20.374 76.5441 20.346 76.6468 20.346H77.3048C77.4121 20.346 77.5031 20.374 77.5778 20.43C77.6525 20.4813 77.7015 20.549 77.7248 20.633L79.0268 24.812C79.0828 25.0033 79.1341 25.19 79.1808 25.372C79.2321 25.554 79.2788 25.736 79.3208 25.918C79.3535 25.7407 79.3885 25.561 79.4258 25.379C79.4631 25.197 79.5075 25.008 79.5588 24.812L80.7698 20.654C80.7978 20.57 80.8491 20.5 80.9238 20.444C80.9985 20.388 81.0895 20.36 81.1968 20.36H82.3308ZM93.9079 25.253C93.9966 25.253 94.0736 25.288 94.1389 25.358L94.7899 26.065C94.3793 26.5597 93.8753 26.9423 93.2779 27.213C92.6806 27.479 91.9666 27.612 91.1359 27.612C90.3986 27.612 89.7313 27.486 89.1339 27.234C88.5413 26.9773 88.0349 26.6227 87.6149 26.17C87.1949 25.7127 86.8706 25.169 86.6419 24.539C86.4179 23.909 86.3059 23.216 86.3059 22.46C86.3059 21.704 86.4249 21.011 86.6629 20.381C86.9056 19.7463 87.2439 19.2027 87.6779 18.75C88.1166 18.2927 88.6393 17.938 89.2459 17.686C89.8573 17.434 90.5293 17.308 91.2619 17.308C91.9899 17.308 92.6316 17.427 93.1869 17.665C93.7469 17.8983 94.2323 18.211 94.6429 18.603L94.1039 19.366C94.0666 19.4173 94.0223 19.4617 93.9709 19.499C93.9196 19.5363 93.8496 19.555 93.7609 19.555C93.6676 19.555 93.5603 19.513 93.4389 19.429C93.3223 19.3403 93.1706 19.2447 92.9839 19.142C92.8019 19.0347 92.5709 18.939 92.2909 18.855C92.0156 18.7663 91.6703 18.722 91.2549 18.722C90.7743 18.722 90.3333 18.806 89.9319 18.974C89.5306 19.142 89.1853 19.387 88.8959 19.709C88.6066 20.031 88.3803 20.423 88.2169 20.885C88.0583 21.347 87.9789 21.872 87.9789 22.46C87.9789 23.0527 88.0629 23.5823 88.2309 24.049C88.3989 24.511 88.6299 24.903 88.9239 25.225C89.2179 25.5423 89.5633 25.785 89.9599 25.953C90.3566 26.121 90.7836 26.205 91.2409 26.205C91.5209 26.205 91.7706 26.191 91.9899 26.163C92.2139 26.1303 92.4193 26.0813 92.6059 26.016C92.7926 25.946 92.9676 25.8597 93.1309 25.757C93.2989 25.6543 93.4646 25.5283 93.6279 25.379C93.7213 25.295 93.8146 25.253 93.9079 25.253ZM97.4298 21.207C97.7238 20.9177 98.0458 20.6867 98.3958 20.514C98.7458 20.3367 99.1541 20.248 99.6208 20.248C100.013 20.248 100.356 20.3133 100.65 20.444C100.948 20.5747 101.198 20.759 101.399 20.997C101.604 21.235 101.758 21.522 101.861 21.858C101.963 22.1893 102.015 22.5557 102.015 22.957V27.5H100.517V22.957C100.517 22.4763 100.405 22.103 100.181 21.837C99.9615 21.571 99.6255 21.438 99.1728 21.438C98.8368 21.438 98.5241 21.515 98.2348 21.669C97.9501 21.823 97.6818 22.033 97.4298 22.299V27.5H95.9248V17.14H97.4298V21.207ZM107.587 24.378C107.051 24.3967 106.598 24.441 106.229 24.511C105.861 24.5763 105.562 24.6627 105.333 24.77C105.105 24.8727 104.939 24.9963 104.836 25.141C104.738 25.2857 104.689 25.4443 104.689 25.617C104.689 25.785 104.715 25.9297 104.766 26.051C104.822 26.1677 104.897 26.2657 104.99 26.345C105.088 26.4197 105.2 26.4757 105.326 26.513C105.457 26.5457 105.599 26.562 105.753 26.562C106.145 26.562 106.481 26.4897 106.761 26.345C107.046 26.1957 107.321 25.981 107.587 25.701V24.378ZM103.597 21.354C104.405 20.6027 105.366 20.227 106.481 20.227C106.892 20.227 107.256 20.2947 107.573 20.43C107.895 20.5607 108.164 20.7473 108.378 20.99C108.598 21.2327 108.763 21.522 108.875 21.858C108.992 22.1893 109.05 22.558 109.05 22.964V27.5H108.378C108.234 27.5 108.124 27.479 108.049 27.437C107.975 27.3903 107.912 27.2993 107.86 27.164L107.713 26.583C107.531 26.7463 107.352 26.8933 107.174 27.024C106.997 27.15 106.813 27.2573 106.621 27.346C106.435 27.4347 106.232 27.5 106.012 27.542C105.798 27.5887 105.56 27.612 105.298 27.612C105.009 27.612 104.738 27.5723 104.486 27.493C104.239 27.4137 104.024 27.2947 103.842 27.136C103.66 26.9727 103.516 26.772 103.408 26.534C103.306 26.296 103.254 26.016 103.254 25.694C103.254 25.4187 103.327 25.1503 103.471 24.889C103.621 24.6277 103.863 24.3943 104.199 24.189C104.54 23.979 104.986 23.8063 105.536 23.671C106.092 23.5357 106.775 23.4587 107.587 23.44V22.964C107.587 22.4507 107.478 22.068 107.258 21.816C107.039 21.564 106.717 21.438 106.292 21.438C106.003 21.438 105.76 21.4753 105.564 21.55C105.368 21.62 105.198 21.697 105.053 21.781C104.909 21.865 104.78 21.9443 104.668 22.019C104.556 22.089 104.437 22.124 104.311 22.124C104.209 22.124 104.12 22.0983 104.045 22.047C103.975 21.991 103.917 21.9233 103.87 21.844L103.597 21.354ZM113.007 27.612C112.414 27.612 111.957 27.4463 111.635 27.115C111.317 26.779 111.159 26.3077 111.159 25.701V21.543H110.375C110.291 21.543 110.218 21.5173 110.158 21.466C110.097 21.41 110.067 21.3283 110.067 21.221V20.612L111.222 20.444L111.551 18.379C111.574 18.2997 111.614 18.2367 111.67 18.19C111.726 18.1387 111.8 18.113 111.894 18.113H112.664V20.458H114.645V21.543H112.664V25.596C112.664 25.8527 112.727 26.0487 112.853 26.184C112.979 26.3193 113.147 26.387 113.357 26.387C113.473 26.387 113.574 26.373 113.658 26.345C113.742 26.3123 113.814 26.2797 113.875 26.247C113.935 26.2097 113.987 26.177 114.029 26.149C114.075 26.1163 114.12 26.1 114.162 26.1C114.246 26.1 114.313 26.1467 114.365 26.24L114.813 26.975C114.579 27.1803 114.304 27.339 113.987 27.451C113.669 27.5583 113.343 27.612 113.007 27.612Z" fill="url(#paint1_linear_1452_1476)"/>
<defs>
<linearGradient id="paint0_linear_1452_1476" x1="0" y1="22" x2="148" y2="22" gradientUnits="userSpaceOnUse">
<stop stop-color="#7876FF"/>
<stop offset="1" stop-color="#5BC0FF"/>
</linearGradient>
<linearGradient id="paint1_linear_1452_1476" x1="53.5" y1="22" x2="115.5" y2="22" gradientUnits="userSpaceOnUse">
<stop stop-color="#7876FF"/>
<stop offset="1" stop-color="#5BBFFF"/>
</linearGradient>
</defs>
</svg>
