<svg width="163" height="39" viewBox="0 0 163 39" fill="none" xmlns="http://www.w3.org/2000/svg">
<path d="M32.8674 38H0.317383L16.2174 2.6H16.9674L32.8674 38ZM16.7674 31.45L24.6674 36.55L16.6174 18.25L8.56738 36.55L16.4174 31.45H16.7674ZM32.8232 24.9C32.8232 22.6 33.1899 20.6 33.9232 18.9C34.6899 17.2 35.6732 15.7833 36.8732 14.65C38.1066 13.4833 39.4899 12.6167 41.0232 12.05C42.5899 11.4833 44.1732 11.2 45.7732 11.2C47.4066 11.2 48.9899 11.4833 50.5232 12.05C52.0899 12.6167 53.4732 13.4833 54.6732 14.65C55.9066 15.7833 56.8899 17.2 57.6232 18.9C58.3566 20.6 58.7232 22.6 58.7232 24.9V38H52.0732V35.4C51.0732 36.4667 49.9066 37.2667 48.5732 37.8C47.2732 38.3333 45.9232 38.6 44.5232 38.6C43.0899 38.6 41.6732 38.3167 40.2732 37.75C38.8732 37.1833 37.6232 36.3333 36.5232 35.2C35.4232 34.0333 34.5232 32.6 33.8232 30.9C33.1566 29.2 32.8232 27.2 32.8232 24.9ZM39.7232 24.9C39.7232 26.2667 39.8899 27.4667 40.2232 28.5C40.5899 29.5 41.0566 30.35 41.6232 31.05C42.2232 31.7167 42.8899 32.2167 43.6232 32.55C44.3899 32.8833 45.1566 33.05 45.9232 33.05C46.6899 33.05 47.4399 32.8833 48.1732 32.55C48.9066 32.2167 49.5566 31.7167 50.1232 31.05C50.7232 30.35 51.1899 29.5 51.5232 28.5C51.8899 27.4667 52.0732 26.2667 52.0732 24.9C52.0732 23.6333 51.8899 22.5333 51.5232 21.6C51.1899 20.6333 50.7232 19.85 50.1232 19.25C49.5566 18.6167 48.9066 18.15 48.1732 17.85C47.4399 17.5167 46.6899 17.35 45.9232 17.35C45.1566 17.35 44.3899 17.5167 43.6232 17.85C42.8899 18.15 42.2232 18.6167 41.6232 19.25C41.0566 19.85 40.5899 20.6333 40.2232 21.6C39.8899 22.5333 39.7232 23.6333 39.7232 24.9ZM77.4295 11.5V19.05L70.8795 15.65V14.9L77.4295 11.5ZM62.7795 38V11.75H69.4295V38H62.7795ZM86.66 29.1C86.66 30.1667 86.8766 30.8833 87.31 31.25C87.7433 31.6167 88.5433 31.8 89.71 31.8H94.46V38H88.81C86.1433 38 84.01 37.3333 82.41 36C80.81 34.6667 80.01 32.5333 80.01 29.6V4.5H86.66V29.1ZM94.46 11.5V19.05L87.96 15.65V14.9L94.46 11.5ZM112.479 11.35C113.845 11.35 115.145 11.6167 116.379 12.15C117.612 12.6833 118.695 13.4833 119.629 14.55C120.595 15.6167 121.362 16.9667 121.929 18.6C122.495 20.2 122.779 22.0833 122.779 24.25V38H116.129V24.05C116.129 21.6833 115.579 19.9167 114.479 18.75C113.379 17.55 112.062 16.95 110.529 16.95C109.762 16.95 109.029 17.1 108.329 17.4C107.662 17.7 107.062 18.15 106.529 18.75C106.029 19.3167 105.629 20.05 105.329 20.95C105.029 21.8167 104.879 22.85 104.879 24.05V38H98.2287V0.249997H104.879V15.35C105.779 14.0167 106.879 13.0167 108.179 12.35C109.512 11.6833 110.945 11.35 112.479 11.35ZM130.338 9.1C129.272 9.1 128.355 8.73333 127.588 8C126.855 7.23333 126.488 6.31667 126.488 5.25C126.488 4.18333 126.855 3.28333 127.588 2.55C128.355 1.81667 129.272 1.45 130.338 1.45C131.405 1.45 132.305 1.81667 133.038 2.55C133.772 3.28333 134.138 4.18333 134.138 5.25C134.138 6.31667 133.772 7.23333 133.038 8C132.305 8.73333 131.405 9.1 130.338 9.1ZM126.988 38V11.75H133.638V38H126.988ZM162.268 38H153.818L146.618 29.05L139.068 38.25H138.268V0.249997H144.918V20.8L152.318 11.75H160.818L150.868 23.9L162.268 38Z" fill="url(#paint0_linear_1452_1462)"/>
<defs>
<linearGradient id="paint0_linear_1452_1462" x1="39.3481" y1="10" x2="64.5228" y2="68.099" gradientUnits="userSpaceOnUse">
<stop stop-color="#74CAFC"/>
<stop offset="1" stop-color="#796FFF"/>
</linearGradient>
</defs>
</svg>
