<svg width="648" height="154" viewBox="0 0 648 154" fill="none" xmlns="http://www.w3.org/2000/svg">
<path d="M130.2 151H-7.07805e-08L63.6 9.4H66.6L130.2 151ZM65.8 124.8L97.4 145.2L65.2 72L33 145.2L64.4 124.8H65.8ZM130.023 98.6C130.023 89.4 131.49 81.4 134.423 74.6C137.49 67.8 141.423 62.1333 146.223 57.6C151.157 52.9333 156.69 49.4667 162.823 47.2C169.09 44.9333 175.423 43.8 181.823 43.8C188.357 43.8 194.69 44.9333 200.823 47.2C207.09 49.4667 212.623 52.9333 217.423 57.6C222.357 62.1333 226.29 67.8 229.223 74.6C232.157 81.4 233.623 89.4 233.623 98.6V151H207.023V140.6C203.023 144.867 198.357 148.067 193.023 150.2C187.823 152.333 182.423 153.4 176.823 153.4C171.09 153.4 165.423 152.267 159.823 150C154.223 147.733 149.223 144.333 144.823 139.8C140.423 135.133 136.823 129.4 134.023 122.6C131.357 115.8 130.023 107.8 130.023 98.6ZM157.623 98.6C157.623 104.067 158.29 108.867 159.623 113C161.09 117 162.957 120.4 165.223 123.2C167.623 125.867 170.29 127.867 173.223 129.2C176.29 130.533 179.357 131.2 182.423 131.2C185.49 131.2 188.49 130.533 191.423 129.2C194.357 127.867 196.957 125.867 199.223 123.2C201.623 120.4 203.49 117 204.823 113C206.29 108.867 207.023 104.067 207.023 98.6C207.023 93.5333 206.29 89.1333 204.823 85.4C203.49 81.5333 201.623 78.4 199.223 76C196.957 73.4667 194.357 71.6 191.423 70.4C188.49 69.0667 185.49 68.4 182.423 68.4C179.357 68.4 176.29 69.0667 173.223 70.4C170.29 71.6 167.623 73.4667 165.223 76C162.957 78.4 161.09 81.5333 159.623 85.4C158.29 89.1333 157.623 93.5333 157.623 98.6ZM308.448 45V75.2L282.248 61.6V58.6L308.448 45ZM249.848 151V46H276.448V151H249.848ZM345.37 115.4C345.37 119.667 346.237 122.533 347.97 124C349.704 125.467 352.904 126.2 357.57 126.2H376.57V151H353.97C343.304 151 334.77 148.333 328.37 143C321.97 137.667 318.77 129.133 318.77 117.4V17H345.37V115.4ZM376.57 45V75.2L350.57 61.6V58.6L376.57 45ZM448.645 44.4C454.112 44.4 459.312 45.4667 464.245 47.6C469.179 49.7333 473.512 52.9333 477.245 57.2C481.112 61.4667 484.179 66.8667 486.445 73.4C488.712 79.8 489.845 87.3333 489.845 96V151H463.245V95.2C463.245 85.7333 461.045 78.6667 456.645 74C452.245 69.2 446.979 66.8 440.845 66.8C437.779 66.8 434.845 67.4 432.045 68.6C429.379 69.8 426.979 71.6 424.845 74C422.845 76.2667 421.245 79.2 420.045 82.8C418.845 86.2667 418.245 90.4 418.245 95.2V151H391.645V-1.09673e-05H418.245V60.4C421.845 55.0667 426.245 51.0667 431.445 48.4C436.779 45.7333 442.512 44.4 448.645 44.4ZM520.084 35.4C515.818 35.4 512.151 33.9333 509.084 31C506.151 27.9333 504.684 24.2667 504.684 20C504.684 15.7333 506.151 12.1333 509.084 9.19999C512.151 6.26666 515.818 4.8 520.084 4.8C524.351 4.8 527.951 6.26666 530.884 9.19999C533.818 12.1333 535.284 15.7333 535.284 20C535.284 24.2667 533.818 27.9333 530.884 31C527.951 33.9333 524.351 35.4 520.084 35.4ZM506.684 151V46H533.284V151H506.684ZM647.802 151H614.002L585.202 115.2L555.002 152H551.802V-1.09673e-05H578.402V82.2L608.002 46H642.002L602.202 94.6L647.802 151Z" fill="black"/>
</svg>
