<svg width="115" height="28" viewBox="0 0 115 28" fill="none" xmlns="http://www.w3.org/2000/svg">
<path d="M23.61 27H0.825L11.955 2.22H12.48L23.61 27ZM12.34 22.415L17.87 25.985L12.235 13.175L6.6 25.985L12.095 22.415H12.34ZM23.5791 17.83C23.5791 16.22 23.8358 14.82 24.3491 13.63C24.8858 12.44 25.5741 11.4483 26.4141 10.655C27.2774 9.83833 28.2458 9.23167 29.3191 8.835C30.4158 8.43833 31.5241 8.24 32.6441 8.24C33.7874 8.24 34.8958 8.43833 35.9691 8.835C37.0658 9.23167 38.0341 9.83833 38.8741 10.655C39.7374 11.4483 40.4258 12.44 40.9391 13.63C41.4524 14.82 41.7091 16.22 41.7091 17.83V27H37.0541V25.18C36.3541 25.9267 35.5374 26.4867 34.6041 26.86C33.6941 27.2333 32.7491 27.42 31.7691 27.42C30.7658 27.42 29.7741 27.2217 28.7941 26.825C27.8141 26.4283 26.9391 25.8333 26.1691 25.04C25.3991 24.2233 24.7691 23.22 24.2791 22.03C23.8124 20.84 23.5791 19.44 23.5791 17.83ZM28.4091 17.83C28.4091 18.7867 28.5258 19.6267 28.7591 20.35C29.0158 21.05 29.3424 21.645 29.7391 22.135C30.1591 22.6017 30.6258 22.9517 31.1391 23.185C31.6758 23.4183 32.2124 23.535 32.7491 23.535C33.2858 23.535 33.8108 23.4183 34.3241 23.185C34.8374 22.9517 35.2924 22.6017 35.6891 22.135C36.1091 21.645 36.4358 21.05 36.6691 20.35C36.9258 19.6267 37.0541 18.7867 37.0541 17.83C37.0541 16.9433 36.9258 16.1733 36.6691 15.52C36.4358 14.8433 36.1091 14.295 35.6891 13.875C35.2924 13.4317 34.8374 13.105 34.3241 12.895C33.8108 12.6617 33.2858 12.545 32.7491 12.545C32.2124 12.545 31.6758 12.6617 31.1391 12.895C30.6258 13.105 30.1591 13.4317 29.7391 13.875C29.3424 14.295 29.0158 14.8433 28.7591 15.52C28.5258 16.1733 28.4091 16.9433 28.4091 17.83ZM54.8035 8.45V13.735L50.2185 11.355V10.83L54.8035 8.45ZM44.5485 27V8.625H49.2035V27H44.5485ZM61.2648 20.77C61.2648 21.5167 61.4165 22.0183 61.7198 22.275C62.0231 22.5317 62.5831 22.66 63.3998 22.66H66.7248V27H62.7698C60.9031 27 59.4098 26.5333 58.2898 25.6C57.1698 24.6667 56.6098 23.1733 56.6098 21.12V3.55H61.2648V20.77ZM66.7248 8.45V13.735L62.1748 11.355V10.83L66.7248 8.45ZM79.3379 8.345C80.2946 8.345 81.2046 8.53167 82.0679 8.905C82.9313 9.27833 83.6896 9.83833 84.3429 10.585C85.0196 11.3317 85.5563 12.2767 85.9529 13.42C86.3496 14.54 86.5479 15.8583 86.5479 17.375V27H81.8929V17.235C81.8929 15.5783 81.5079 14.3417 80.7379 13.525C79.9679 12.685 79.0463 12.265 77.9729 12.265C77.4363 12.265 76.9229 12.37 76.4329 12.58C75.9663 12.79 75.5463 13.105 75.1729 13.525C74.8229 13.9217 74.5429 14.435 74.3329 15.065C74.1229 15.6717 74.0179 16.395 74.0179 17.235V27H69.3629V0.574998H74.0179V11.145C74.6479 10.2117 75.4179 9.51167 76.3279 9.045C77.2613 8.57833 78.2646 8.345 79.3379 8.345ZM91.8398 6.77C91.0931 6.77 90.4514 6.51333 89.9148 6C89.4014 5.46333 89.1448 4.82167 89.1448 4.075C89.1448 3.32833 89.4014 2.69833 89.9148 2.185C90.4514 1.67167 91.0931 1.415 91.8398 1.415C92.5864 1.415 93.2164 1.67167 93.7298 2.185C94.2431 2.69833 94.4998 3.32833 94.4998 4.075C94.4998 4.82167 94.2431 5.46333 93.7298 6C93.2164 6.51333 92.5864 6.77 91.8398 6.77ZM89.4948 27V8.625H94.1498V27H89.4948ZM114.19 27H108.275L103.235 20.735L97.9503 27.175H97.3903V0.574998H102.045V14.96L107.225 8.625H113.175L106.21 17.13L114.19 27Z" fill="black"/>
</svg>
